<?xml version="1.0" encoding="UTF-8" standalone="no"?>
<!DOCTYPE svg PUBLIC "-//W3C//DTD SVG 1.1//EN"
 "http://www.w3.org/Graphics/SVG/1.1/DTD/svg11.dtd">
<!-- Generated by graphviz version 2.36.0 (20140111.2315)
 -->
<!-- Title: %3 Pages: 1 -->
<svg width="747pt" height="458pt"
 viewBox="0.00 0.00 747.00 458.00" xmlns="http://www.w3.org/2000/svg" xmlns:xlink="http://www.w3.org/1999/xlink">
<g id="graph0" class="graph" transform="scale(1 1) rotate(0) translate(4 454)">
<title>%3</title>
<polygon fill="white" stroke="none" points="-4,4 -4,-454 743,-454 743,4 -4,4"/>
<!-- 1 -->
<g id="node1" class="node"><title>1</title>
<polygon fill="#ff0000" stroke="#ff0000" points="376.25,-450 257.75,-450 257.75,-398 376.25,-398 376.25,-450"/>
<text text-anchor="middle" x="317" y="-438" font-family="Arial" font-size="10.00" fill="#ffffff">path_finder:1:&lt;module&gt;</text>
<text text-anchor="middle" x="317" y="-427" font-family="Arial" font-size="10.00" fill="#ffffff">100.00%</text>
<text text-anchor="middle" x="317" y="-416" font-family="Arial" font-size="10.00" fill="#ffffff">(1.12%)</text>
<text text-anchor="middle" x="317" y="-405" font-family="Arial" font-size="10.00" fill="#ffffff">1×</text>
</g>
<!-- 3 -->
<g id="node2" class="node"><title>3</title>
<polygon fill="#0d0f73" stroke="#0d0f73" points="180.25,-358 -0.25,-358 -0.25,-306 180.25,-306 180.25,-358"/>
<text text-anchor="middle" x="90" y="-346" font-family="Arial" font-size="10.00" fill="#ffffff">path_finder:103:get_dependency_path</text>
<text text-anchor="middle" x="90" y="-335" font-family="Arial" font-size="10.00" fill="#ffffff">0.59%</text>
<text text-anchor="middle" x="90" y="-324" font-family="Arial" font-size="10.00" fill="#ffffff">(0.27%)</text>
<text text-anchor="middle" x="90" y="-313" font-family="Arial" font-size="10.00" fill="#ffffff">143×</text>
</g>
<!-- 1&#45;&gt;3 -->
<g id="edge1" class="edge"><title>1&#45;&gt;3</title>
<path fill="none" stroke="#0d0f73" stroke-width="0.5" d="M257.655,-399.471C226.729,-387.21 188.797,-372.171 156.84,-359.5"/>
<polygon fill="#0d0f73" stroke="#0d0f73" stroke-width="0.5" points="157.076,-358.276 153.371,-358.125 156.173,-360.554 157.076,-358.276"/>
<text text-anchor="middle" x="245" y="-381" font-family="Arial" font-size="10.00" fill="#0d0f73">0.59%</text>
<text text-anchor="middle" x="245" y="-370" font-family="Arial" font-size="10.00" fill="#0d0f73">143×</text>
</g>
<!-- 7 -->
<g id="node3" class="node"><title>7</title>
<polygon fill="#0aac38" stroke="#0aac38" points="462.25,-358 313.75,-358 313.75,-306 462.25,-306 462.25,-358"/>
<text text-anchor="middle" x="388" y="-346" font-family="Arial" font-size="10.00" fill="#ffffff">path_finder:60:load_sentences</text>
<text text-anchor="middle" x="388" y="-335" font-family="Arial" font-size="10.00" fill="#ffffff">43.00%</text>
<text text-anchor="middle" x="388" y="-324" font-family="Arial" font-size="10.00" fill="#ffffff">(7.71%)</text>
<text text-anchor="middle" x="388" y="-313" font-family="Arial" font-size="10.00" fill="#ffffff">76×</text>
</g>
<!-- 1&#45;&gt;7 -->
<g id="edge2" class="edge"><title>1&#45;&gt;7</title>
<path fill="none" stroke="#0aac38" stroke-width="1.72" d="M336.777,-397.93C345.17,-387.292 355.031,-374.792 363.849,-363.614"/>
<polygon fill="#0aac38" stroke="#0aac38" stroke-width="1.72" points="365.808,-364.86 368.082,-358.248 362.181,-361.999 365.808,-364.86"/>
<text text-anchor="middle" x="378" y="-381" font-family="Arial" font-size="10.00" fill="#0aac38">43.00%</text>
<text text-anchor="middle" x="378" y="-370" font-family="Arial" font-size="10.00" fill="#0aac38">76×</text>
</g>
<!-- 9 -->
<g id="node4" class="node"><title>9</title>
<polygon fill="#1eba09" stroke="#1eba09" points="304,-358 190,-358 190,-306 304,-306 304,-358"/>
<text text-anchor="middle" x="247" y="-346" font-family="Arial" font-size="10.00" fill="#ffffff">path_finder:22:__init__</text>
<text text-anchor="middle" x="247" y="-335" font-family="Arial" font-size="10.00" fill="#ffffff">53.00%</text>
<text text-anchor="middle" x="247" y="-324" font-family="Arial" font-size="10.00" fill="#ffffff">(30.21%)</text>
<text text-anchor="middle" x="247" y="-313" font-family="Arial" font-size="10.00" fill="#ffffff">1×</text>
</g>
<!-- 1&#45;&gt;9 -->
<g id="edge3" class="edge"><title>1&#45;&gt;9</title>
<path fill="none" stroke="#1eba09" stroke-width="2.12" d="M297.501,-397.93C289.377,-387.485 279.858,-375.245 271.286,-364.225"/>
<polygon fill="#1eba09" stroke="#1eba09" stroke-width="2.12" points="273.136,-362.441 266.637,-358.248 269.102,-365.579 273.136,-362.441"/>
<text text-anchor="middle" x="308" y="-381" font-family="Arial" font-size="10.00" fill="#1eba09">53.00%</text>
<text text-anchor="middle" x="308" y="-370" font-family="Arial" font-size="10.00" fill="#1eba09">1×</text>
</g>
<!-- 10 -->
<g id="node5" class="node"><title>10</title>
<polygon fill="#0d1375" stroke="#0d1375" points="658,-358 472,-358 472,-306 658,-306 658,-358"/>
<text text-anchor="middle" x="565" y="-346" font-family="Arial" font-size="10.00" fill="#ffffff">path_finder:176:get_path_candidates_2</text>
<text text-anchor="middle" x="565" y="-335" font-family="Arial" font-size="10.00" fill="#ffffff">1.46%</text>
<text text-anchor="middle" x="565" y="-324" font-family="Arial" font-size="10.00" fill="#ffffff">(1.35%)</text>
<text text-anchor="middle" x="565" y="-313" font-family="Arial" font-size="10.00" fill="#ffffff">1688×</text>
</g>
<!-- 1&#45;&gt;10 -->
<g id="edge4" class="edge"><title>1&#45;&gt;10</title>
<path fill="none" stroke="#0d1375" stroke-width="0.5" d="M376.402,-401.443C411.246,-388.798 455.531,-372.727 492.431,-359.335"/>
<polygon fill="#0d1375" stroke="#0d1375" stroke-width="0.5" points="493.107,-360.394 495.979,-358.048 492.271,-358.091 493.107,-360.394"/>
<text text-anchor="middle" x="485" y="-381" font-family="Arial" font-size="10.00" fill="#0d1375">1.46%</text>
<text text-anchor="middle" x="485" y="-370" font-family="Arial" font-size="10.00" fill="#0d1375">1688×</text>
</g>
<!-- 44 -->
<g id="node6" class="node"><title>44</title>
<polygon fill="#0d1575" stroke="#0d1575" points="296,-266 110,-266 110,-214 296,-214 296,-266"/>
<text text-anchor="middle" x="203" y="-254" font-family="Arial" font-size="10.00" fill="#ffffff">~:0:&lt;method &#39;readlines&#39; of &#39;file&#39; objects&gt;</text>
<text text-anchor="middle" x="203" y="-243" font-family="Arial" font-size="10.00" fill="#ffffff">2.02%</text>
<text text-anchor="middle" x="203" y="-232" font-family="Arial" font-size="10.00" fill="#ffffff">(2.02%)</text>
<text text-anchor="middle" x="203" y="-221" font-family="Arial" font-size="10.00" fill="#ffffff">79×</text>
</g>
<!-- 7&#45;&gt;44 -->
<g id="edge5" class="edge"><title>7&#45;&gt;44</title>
<path fill="none" stroke="#0d0f74" stroke-width="0.5" d="M363.113,-305.909C351.218,-295.101 336.262,-283.109 321,-275 316.179,-272.439 308.565,-269.542 299.468,-266.545"/>
<polygon fill="#0d0f74" stroke="#0d0f74" stroke-width="0.5" points="299.759,-265.352 296.052,-265.438 299.003,-267.683 299.759,-265.352"/>
<text text-anchor="middle" x="367" y="-289" font-family="Arial" font-size="10.00" fill="#0d0f74">0.59%</text>
<text text-anchor="middle" x="367" y="-278" font-family="Arial" font-size="10.00" fill="#0d0f74">76×</text>
</g>
<!-- 15 -->
<g id="node7" class="node"><title>15</title>
<polygon fill="#0d2e7c" stroke="#0d2e7c" points="470.25,-266 305.75,-266 305.75,-214 470.25,-214 470.25,-266"/>
<text text-anchor="middle" x="388" y="-254" font-family="Arial" font-size="10.00" fill="#ffffff">~:0:&lt;method &#39;strip&#39; of &#39;str&#39; objects&gt;</text>
<text text-anchor="middle" x="388" y="-243" font-family="Arial" font-size="10.00" fill="#ffffff">7.36%</text>
<text text-anchor="middle" x="388" y="-232" font-family="Arial" font-size="10.00" fill="#ffffff">(7.36%)</text>
<text text-anchor="middle" x="388" y="-221" font-family="Arial" font-size="10.00" fill="#ffffff">189500×</text>
</g>
<!-- 7&#45;&gt;15 -->
<g id="edge6" class="edge"><title>7&#45;&gt;15</title>
<path fill="none" stroke="#0d1676" stroke-width="0.5" d="M388,-305.93C388,-294.712 388,-281.422 388,-269.798"/>
<polygon fill="#0d1676" stroke="#0d1676" stroke-width="0.5" points="389.225,-269.748 388,-266.248 386.775,-269.748 389.225,-269.748"/>
<text text-anchor="middle" x="404.5" y="-289" font-family="Arial" font-size="10.00" fill="#0d1676">2.28%</text>
<text text-anchor="middle" x="404.5" y="-278" font-family="Arial" font-size="10.00" fill="#0d1676">54816×</text>
</g>
<!-- 18 -->
<g id="node8" class="node"><title>18</title>
<polygon fill="#0c9093" stroke="#0c9093" points="739,-205 575,-205 575,-153 739,-153 739,-205"/>
<text text-anchor="middle" x="657" y="-193" font-family="Arial" font-size="10.00" fill="#ffffff">path_finder:148:process_sent_line</text>
<text text-anchor="middle" x="657" y="-182" font-family="Arial" font-size="10.00" fill="#ffffff">24.55%</text>
<text text-anchor="middle" x="657" y="-171" font-family="Arial" font-size="10.00" fill="#ffffff">(20.61%)</text>
<text text-anchor="middle" x="657" y="-160" font-family="Arial" font-size="10.00" fill="#ffffff">26564×</text>
</g>
<!-- 7&#45;&gt;18 -->
<g id="edge7" class="edge"><title>7&#45;&gt;18</title>
<path fill="none" stroke="#0c9093" stroke-width="0.98" d="M462.34,-307.121C463.904,-306.734 465.459,-306.359 467,-306 546.813,-287.402 593.093,-327.726 647,-266 660.105,-250.995 662.32,-228.475 661.41,-210.244"/>
<polygon fill="#0c9093" stroke="#0c9093" stroke-width="0.98" points="663.154,-210.098 661.076,-205.225 659.662,-210.33 663.154,-210.098"/>
<text text-anchor="middle" x="654" y="-289" font-family="Arial" font-size="10.00" fill="#0c9093">24.55%</text>
<text text-anchor="middle" x="654" y="-278" font-family="Arial" font-size="10.00" fill="#0c9093">26564×</text>
</g>
<!-- 20 -->
<g id="node9" class="node"><title>20</title>
<polygon fill="#0d2e7c" stroke="#0d2e7c" points="642.25,-266 479.75,-266 479.75,-214 642.25,-214 642.25,-266"/>
<text text-anchor="middle" x="561" y="-254" font-family="Arial" font-size="10.00" fill="#ffffff">path_finder:159:iterate_sentences</text>
<text text-anchor="middle" x="561" y="-243" font-family="Arial" font-size="10.00" fill="#ffffff">7.38%</text>
<text text-anchor="middle" x="561" y="-232" font-family="Arial" font-size="10.00" fill="#ffffff">(0.49%)</text>
<text text-anchor="middle" x="561" y="-221" font-family="Arial" font-size="10.00" fill="#ffffff">1764×</text>
</g>
<!-- 7&#45;&gt;20 -->
<g id="edge8" class="edge"><title>7&#45;&gt;20</title>
<path fill="none" stroke="#0d2e7c" stroke-width="0.5" d="M436.19,-305.93C459.058,-294.033 486.403,-279.807 509.661,-267.708"/>
<polygon fill="#0d2e7c" stroke="#0d2e7c" stroke-width="0.5" points="510.229,-268.794 512.769,-266.092 509.098,-266.62 510.229,-268.794"/>
<text text-anchor="middle" x="510" y="-289" font-family="Arial" font-size="10.00" fill="#0d2e7c">7.38%</text>
<text text-anchor="middle" x="510" y="-278" font-family="Arial" font-size="10.00" fill="#0d2e7c">1764×</text>
</g>
<!-- 9&#45;&gt;44 -->
<g id="edge10" class="edge"><title>9&#45;&gt;44</title>
<path fill="none" stroke="#0d1375" stroke-width="0.5" d="M225.287,-305.711C223.348,-302.869 221.54,-299.937 220,-297 215.583,-288.575 212.122,-278.823 209.51,-269.84"/>
<polygon fill="#0d1375" stroke="#0d1375" stroke-width="0.5" points="210.569,-269.081 208.442,-266.044 208.211,-269.745 210.569,-269.081"/>
<text text-anchor="middle" x="234" y="-289" font-family="Arial" font-size="10.00" fill="#0d1375">1.43%</text>
<text text-anchor="middle" x="234" y="-278" font-family="Arial" font-size="10.00" fill="#0d1375">3×</text>
</g>
<!-- 9&#45;&gt;15 -->
<g id="edge11" class="edge"><title>9&#45;&gt;15</title>
<path fill="none" stroke="#0d2379" stroke-width="0.5" d="M259.238,-305.874C265.606,-295.059 274.311,-283.071 285,-275 288.616,-272.27 294.513,-269.364 301.705,-266.446"/>
<polygon fill="#0d2379" stroke="#0d2379" stroke-width="0.5" points="302.529,-267.438 305.335,-265.013 301.629,-265.159 302.529,-267.438"/>
<text text-anchor="middle" x="304" y="-289" font-family="Arial" font-size="10.00" fill="#0d2379">5.07%</text>
<text text-anchor="middle" x="304" y="-278" font-family="Arial" font-size="10.00" fill="#0d2379">134684×</text>
</g>
<!-- 16 -->
<g id="node10" class="node"><title>16</title>
<polygon fill="#0c8a91" stroke="#0c8a91" points="624,-52 460,-52 460,-0 624,-0 624,-52"/>
<text text-anchor="middle" x="542" y="-40" font-family="Arial" font-size="10.00" fill="#ffffff">~:0:&lt;method &#39;split&#39; of &#39;str&#39; objects&gt;</text>
<text text-anchor="middle" x="542" y="-29" font-family="Arial" font-size="10.00" fill="#ffffff">23.55%</text>
<text text-anchor="middle" x="542" y="-18" font-family="Arial" font-size="10.00" fill="#ffffff">(23.55%)</text>
<text text-anchor="middle" x="542" y="-7" font-family="Arial" font-size="10.00" fill="#ffffff">187888×</text>
</g>
<!-- 9&#45;&gt;16 -->
<g id="edge9" class="edge"><title>9&#45;&gt;16</title>
<path fill="none" stroke="#0c5d88" stroke-width="0.65" d="M189.905,-308.303C152.716,-292.944 110.164,-274.042 105,-266 92.5137,-246.552 92.2722,-233.291 105,-214 182.849,-96.0094 352.176,-52.1944 455.704,-36.1174"/>
<polygon fill="#0c5d88" stroke="#0c5d88" stroke-width="0.65" points="455.923,-37.5003 459.665,-35.5108 455.499,-34.7325 455.923,-37.5003"/>
<text text-anchor="middle" x="176" y="-182" font-family="Arial" font-size="10.00" fill="#0c5d88">16.27%</text>
<text text-anchor="middle" x="176" y="-171" font-family="Arial" font-size="10.00" fill="#0c5d88">134684×</text>
</g>
<!-- 18&#45;&gt;16 -->
<g id="edge13" class="edge"><title>18&#45;&gt;16</title>
<path fill="none" stroke="#0d1e78" stroke-width="0.5" d="M655.575,-152.723C653.479,-134.473 648.371,-109.98 636,-92 625.562,-76.8291 610.337,-64.1148 595.168,-54.07"/>
<polygon fill="#0d1e78" stroke="#0d1e78" stroke-width="0.5" points="595.738,-52.9794 592.136,-52.0967 594.401,-55.0328 595.738,-52.9794"/>
<text text-anchor="middle" x="670.5" y="-121" font-family="Arial" font-size="10.00" fill="#0d1e78">3.94%</text>
<text text-anchor="middle" x="670.5" y="-110" font-family="Arial" font-size="10.00" fill="#0d1e78">26564×</text>
</g>
<!-- 17 -->
<g id="node11" class="node"><title>17</title>
<polygon fill="#0d2b7b" stroke="#0d2b7b" points="631,-144 453,-144 453,-92 631,-92 631,-144"/>
<text text-anchor="middle" x="542" y="-132" font-family="Arial" font-size="10.00" fill="#ffffff">path_finder:152:get_sentence_offsets</text>
<text text-anchor="middle" x="542" y="-121" font-family="Arial" font-size="10.00" fill="#ffffff">6.79%</text>
<text text-anchor="middle" x="542" y="-110" font-family="Arial" font-size="10.00" fill="#ffffff">(3.40%)</text>
<text text-anchor="middle" x="542" y="-99" font-family="Arial" font-size="10.00" fill="#ffffff">76×</text>
</g>
<!-- 20&#45;&gt;17 -->
<g id="edge14" class="edge"><title>20&#45;&gt;17</title>
<path fill="none" stroke="#0d2b7b" stroke-width="0.5" d="M546.065,-213.909C544.825,-210.983 543.758,-207.977 543,-205 538.274,-186.435 538.034,-164.879 538.97,-147.991"/>
<polygon fill="#0d2b7b" stroke="#0d2b7b" stroke-width="0.5" points="540.209,-147.812 539.202,-144.243 537.763,-147.661 540.209,-147.812"/>
<text text-anchor="middle" x="557" y="-182" font-family="Arial" font-size="10.00" fill="#0d2b7b">6.79%</text>
<text text-anchor="middle" x="557" y="-171" font-family="Arial" font-size="10.00" fill="#0d2b7b">76×</text>
</g>
<!-- 17&#45;&gt;16 -->
<g id="edge12" class="edge"><title>17&#45;&gt;16</title>
<path fill="none" stroke="#0d1b77" stroke-width="0.5" d="M542,-91.93C542,-80.7116 542,-67.4223 542,-55.7978"/>
<polygon fill="#0d1b77" stroke="#0d1b77" stroke-width="0.5" points="543.225,-55.7477 542,-52.2477 540.775,-55.7478 543.225,-55.7477"/>
<text text-anchor="middle" x="558.5" y="-75" font-family="Arial" font-size="10.00" fill="#0d1b77">3.32%</text>
<text text-anchor="middle" x="558.5" y="-64" font-family="Arial" font-size="10.00" fill="#0d1b77">26564×</text>
</g>
</g>
</svg>
